<?xml version="1.0" encoding="utf-8"?>
<!-- Generator: Adobe Illustrator 16.0.0, SVG Export Plug-In . SVG Version: 6.00 Build 0)  -->
<!DOCTYPE svg PUBLIC "-//W3C//DTD SVG 1.1//EN" "http://www.w3.org/Graphics/SVG/1.1/DTD/svg11.dtd">
<svg version="1.1" id="logo-text" xmlns="http://www.w3.org/2000/svg" xmlns:xlink="http://www.w3.org/1999/xlink" x="0px" y="0px"
	 width="1025px" height="768px" viewBox="0 0 1025 768" enable-background="new 0 0 1025 768" xml:space="preserve">
<g>
	<g>
		<path d="M161.002,195.784c-9.718,0-15.23,5.077-15.23,17.986s5.512,17.889,15.23,17.985c9.718,0,15.228-5.076,15.228-17.985
			S170.718,195.681,161.002,195.784z"/>
		<path d="M493.736,211.885c0,9.67,4.109,16.197,14.021,16.1c5.946,0,9.864-2.321,12.62-4.787v-22.627
			c-2.756-2.466-6.674-4.787-12.62-4.787c-9.963-0.104-14.113,6.423-14.113,16.101H493.736z"/>
		<path d="M232.653,213.771c0,10.878,3.868,17.647,13.538,17.695c5.947,0,10.443-2.466,12.909-4.786v-25.818
			c-2.466-2.321-6.962-4.787-12.909-4.787c-9.767,0.089-13.632,6.858-13.632,17.696H232.653z"/>
		<path d="M0,132.585v157.134h681.723V132.585H0z M324.611,151.112h22.917v20.017h-22.917V151.112z M74.989,230.451
			c10.153,0,14.212-4.932,14.94-16.245h20.597c-1.45,21.902-12.764,33.503-35.679,33.503c-27.124,0-37.712-16.245-37.712-42.787
			c0-26.979,10.879-44.237,38.728-44.237c22.625,0,33.603,11.362,34.569,33.648H89.929c-0.725-11.313-5.222-16.39-15.23-16.39
			c-14.069,0-16.825,10.008-16.825,26.251c0,16.243,2.756,26.297,17.067,26.256H74.989z M160.565,247.711
			c-16.971,0-34.954-7.688-34.954-33.648c0-26.542,18.856-34.086,35.824-34.086c17.116,0,35.053,7.736,35.053,33.603
			c-0.097,26.341-19.047,34.077-35.969,34.132H160.565z M278.631,246.258H261.37v-8.703c-3.191,4.642-10.588,10.153-21.609,10.153
			c-15.085,0-27.269-10.443-27.269-33.793c0-24.223,13.199-33.941,27.269-33.941c10.586,0,16.922,5.56,19.339,8.413v-37.275h19.437
			v95.146H278.631z M365.659,246.258h-61.208v-14.65h21.902v-35.536h-21.902v-14.65h41.336v50.184h19.872V246.258z M452.54,246.258
			h-19.436v-36.694c0-9.138-2.321-13.344-10.153-13.344c-5.222,0-8.993,1.74-11.895,4.641v45.397h-19.436v-64.831h17.26v8.703
			c3.191-4.784,9.863-10.153,20.887-10.153c11.604,0,22.725,6.044,22.725,26.108v40.173H452.54z M539.713,247.274
			c0,18.421-12.035,27.269-33.648,27.269c-13.635,0-30.315-3.481-31.038-25.673h18.566c0.58,6.044,2.9,11.604,13.537,11.604
			c11.895,0,13.2-6.962,13.2-14.795V235.67c-3.191,3.626-8.703,8.123-18.856,8.123c-15.518,0-27.85-10.443-27.85-31.62
			c0-21.319,12.619-32.198,27.994-32.198c10.443,0,17.889,5.077,20.79,9.718v-8.268h17.262v65.849H539.713z M636.457,263.084
			h-80.643v-16.823h80.643V263.084z"/>
	</g>
	<g>
		<path d="M248.028,368.683c-6.527,0-12.907,2.466-14.94,10.731h29.88c-2.033-8.227-8.411-10.644-14.938-10.731H248.028z"/>
		<path d="M0,306.642v157.135h420.637V306.642H0z M108.058,370.131H76.005v20.742c0,10.395,1.934,14.746,11.845,14.795
			c6.672,0,12.909-2.031,17.261-3.771v15.229c-4.787,2.176-12.329,4.642-22.192,4.642c-17.115,0-26.251-7.542-26.251-30.167v-21.467
			H36.506v-14.65h20.162v-30.314h19.437v30.314h32.053v14.647H108.058z M191.46,420.315h-19.437V383.62
			c0-9.138-2.321-13.344-10.153-13.344c-6.382,0-10.298,2.9-11.894,4.642v45.397h-19.434v-95.146h19.437v37.42
			c2.756-3.336,7.978-8.558,19.144-8.558c11.894,0,22.241,6.043,22.241,26.108v40.176H191.46z M282.982,391.163h-50.184
			c0,9.187,4.593,15.955,16.438,15.955c7.252,0,12.619-2.466,13.49-7.107h20.016c-3.481,16.245-17.986,21.757-33.648,21.757
			c-20.162,0-35.969-9.138-35.969-33.503c0-26.108,18.131-34.231,35.534-34.231c17.983,0,34.328,8.461,34.328,33.794v3.336H282.982z
			 M375.377,437.141h-80.644v-16.823h80.644V437.141L375.377,437.141z"/>
	</g>
	<g>
		<path d="M770.191,542.739c-6.527,0-12.908,2.466-14.939,10.731h29.879c-2.031-8.227-8.402-10.644-14.93-10.731H770.191z"/>
		<path d="M319.682,576.533c0,4.109,3.384,6.044,9.186,5.947c7.833,0,14.07-3.046,16.101-4.787v-6.672
			c-2.031-0.436-7.978-0.87-12.619-0.87c-7.303-0.008-12.762,1.201-12.762,6.382H319.682z"/>
		<path d="M0,480.698v157.135h937.973V480.698H0z M672.719,499.226h22.918v20.017h-22.918V499.226z M498.665,499.226h22.917v20.017
			h-22.917V499.226z M104.432,594.372H84.272v-34.374H63.676v34.374H43.514v-83.98h20.159v32.781H84.27v-32.781h20.159v83.98
			H104.432z M191.46,594.372h-17.261v-8.703c-3.191,4.786-9.863,10.153-20.887,10.153c-11.604,0-22.77-5.947-22.77-26.108v-40.176
			h19.437v36.694c0,9.187,2.417,13.296,10.153,13.296c5.222,0,8.993-1.74,11.894-4.642v-45.397h19.437v64.883H191.46z
			 M285.158,594.372H268.48v-42.352c0-5.802-1.016-8.993-4.787-8.993c-3.626,0-6.527,3.191-7.397,4.642v46.703h-16.533v-42.352
			c0-5.802-1.016-8.993-4.787-8.993c-3.626,0-6.527,3.191-7.397,4.642v46.703h-16.681v-64.834h14.505v8.848
			c2.031-3.626,6.817-10.298,16.245-10.298c7.688,0,11.846,4.593,13.296,9.428c1.161-1.886,5.802-9.428,15.663-9.428
			c11.749,0,14.746,10.637,14.746,21.901v44.383H285.158z M372.912,592.921c-2.901,1.451-8.413,2.901-13.49,2.901
			c-8.558,0-11.313-4.062-11.313-9.283v-1.306c-3.336,4.207-10.588,10.589-24.368,10.637c-12.764,0-23.495-5.656-23.495-18.711
			c0-14.795,13.635-19.001,27.702-19.001c7.397,0,14.021,1.209,17.164,2.03v-4.932c0-6.962-1.596-12.184-12.039-12.184
			c-7.397,0-12.474,2.611-12.474,9.283h-18.131c0-17.116,13.634-24.223,31.763-24.223c16.68,0,30.218,6.043,30.218,25.528v24.223
			c0,2.417,0.967,3.384,3.385,3.336c1.595,0,3.916-0.436,5.077-0.726v12.426H372.912z M452.54,594.372h-19.436v-36.695
			c0-9.138-2.321-13.344-10.153-13.344c-5.222,0-8.993,1.74-11.895,4.642v45.397h-19.436v-64.834h17.26v8.703
			c3.191-4.784,9.863-10.153,20.887-10.153c11.604,0,22.725,6.043,22.725,26.108v40.176H452.54z M539.713,594.372h-61.208v-14.65
			h21.902v-35.536h-21.902v-14.65h41.336v50.185h19.871V594.372z M630.221,544.188h-32.053v20.742
			c0,10.395,1.934,14.746,11.846,14.795c6.672,0,12.908-2.031,17.26-3.771v15.229c-4.787,2.176-12.328,4.642-22.191,4.642
			c-17.117,0-26.252-7.542-26.252-30.167V544.19h-20.162v-14.65h20.162v-30.314h19.436v30.314h32.055v14.647H630.221z
			 M713.768,594.372h-61.207v-14.65h21.902v-35.536h-21.902v-14.65h41.336v50.185h19.871V594.372z M805.145,565.22h-50.184
			c0,9.187,4.594,15.955,16.439,15.955c7.252,0,12.619-2.466,13.488-7.107h20.018c-3.482,16.245-17.986,21.757-33.65,21.757
			c-20.16,0-35.969-9.138-35.969-33.503c0-26.108,18.131-34.231,35.535-34.231c17.982,0,34.328,8.461,34.328,33.794v3.336H805.145z
			 M856.346,595.769c-18.564-0.145-33.648-5.222-34.082-21.757h19.867c0.58,6.285,7.012,7.978,15.715,7.978
			c7.541,0,14.215-1.306,14.215-5.946c0-5.367-9.43-5.803-22.193-7.833c-12.473-2.03-26.254-5.222-26.254-19.727
			c0-14.357,13.635-20.449,33.072-20.449c16.971,0,30.701,4.593,31.668,20.597h-19.871c-0.871-5.512-7.252-6.817-13.635-6.817
			c-6.816,0-11.314,1.451-11.314,5.222c0,4.594,7.012,5.318,22.242,7.397c12.764,1.692,26.35,5.318,26.35,20.065
			c0.049,16.194-16.281,21.513-35.863,21.326L856.346,595.769z"/>
	</g>
</g>
</svg>
