<?xml version="1.0" encoding="utf-8"?>
<!-- Generator: Adobe Illustrator 16.0.0, SVG Export Plug-In . SVG Version: 6.00 Build 0)  -->
<!DOCTYPE svg PUBLIC "-//W3C//DTD SVG 1.1//EN" "http://www.w3.org/Graphics/SVG/1.1/DTD/svg11.dtd">
<svg version="1.1" id="Layer_1" xmlns="http://www.w3.org/2000/svg" xmlns:xlink="http://www.w3.org/1999/xlink" x="0px" y="0px"
	 width="1654.396px" height="598.469px" viewBox="0 0 1654.396 598.469" enable-background="new 0 0 1654.396 598.469"
	 xml:space="preserve">
<g id="Layer_3">
	<rect y="48.395" fill="#FACF2A" width="500" height="501"/>
</g>
<g id="Layer_1_1_" display="none">
	
		<image display="inline" overflow="visible" enable-background="new    " width="301" height="300" xlink:href="14AFBE16CA123971.jpeg"  transform="matrix(1.8381 0 0 1.8442 45.1904 32.7285)">
	</image>
</g>
<g id="Layer_2">
	<path fill="#333333" d="M79,380.825v-6.191c0,0,0.136-1.494,2.237-1.918c7.036,0.039,14.712-1.619,14.823-10.463l3.452-0.295
		c0,0,4.146-7.371,15.348-7.371c11.202,0,27.14-1.473,27.14-1.473v-15.957c0,0-3.98-0.109-3.98-4.312c0-4.201,3.98-4.09,3.98-4.09
		V275.58l2-3.538v-4.422c0,0-68.22,9.729-70.726-63.086c0-4.017,1.929-33.607,3.992-38.029l-0.932-2.784
		c-1.641-2.67-0.3-6.266-0.3-6.266c7.075-11.497,21.756-35.76,21.756-35.76s2.399-2.1,7.632,0.59l4.427-0.295
		c0,0,9.813-5.048,19.087-5.749c8.696,0.737,11.833,0.221,22.335,5.601l35.818,6.043c0,0,9.361-10.678,17.026-11.055
		c0,0,14.372-19.899,40.461-19.31c11.497-0.029,23.878,6.781,23.878,6.781l6.781-10.908l40.388,8.549c0,0,1.474-1.769,6.485,4.127
		c5.011,5.896,21.815,25.942,21.815,25.942s2.948,4.127,0,9.139c-2.949,5.011-3.538,6.78-3.538,6.78s-1.475,3.833,1.18,10.908
		c2.652,7.075,10.022,50.407-29.775,89.615c0,0-10.612,11.202-41.271,13.855l-2.064,3.244l51.354,7.664c0,0,4.189-0.884,4.189,6.486
		v2.067l17,3.239v-4.124c0,0-3.559-1.183-2.97-3.247c0.388-1.093,5.861-0.934,6.688-0.82c0.825,0.114,1.644,2.499-1.389,3.818
		l0.136,4.422l2.353,1.424l2.015,2.362l18.793-15.035l63.676,5.085c0,0,1.769-0.221,1.769,2.874c0,3.095,2.875,80.259,2.875,80.259
		l-63.898-0.322c0,0-1.547-1.312-1.547-2.312s-6.413,0-6.413,0s1.106,7.398-4.863,13.146c-0.478,0.461-0.885,4.031,0,6.463
		c0,0,7.812-0.047,9.876,0.025s2.507-2.492,3.464-2.492c0.958,0,3.021,4.574,3.169,7.965s-2.109,8.172-2.948,7.816
		c-0.837-0.357-1.013-1.738-4.117-1.754c-3.105-0.014-11.654-0.418-11.654-0.418s0.221,3.246-2.212,3.246
		c-2.432,0-20.783,0-20.783,0l-9.017,3.35v16.803l-15.17,1.107l0.266,13.35c0,0,0.223,0.92-0.865,1.795
		c-4.296,0.645-4.298,0.656-5.938,0.773c-7.426,0-17.038,10.611-14.605,17.023c2.432,6.412,0.443,20.119-0.44,25.648
		c-0.885,5.525-0.219,28.963-0.219,28.963s-12.898,2.875-43.63,2.432c-30.732-0.441-45.398-2.875-45.398-2.875V473.68
		c0,0-2.538-11.195-2.138-21.445c0.113-2.906-6.043-1.105-9.581-0.664c-3.537,0.441-33.533-3.096-34.639-5.086
		c-1.105-1.988-3.217-5.57,0.7-11.055c1.105-1.547,27.214-0.221,36.5,4.201c9.286,4.422,9.294,4.422,9.294,4.422
		s9.071-11.275,13.493-13.266c4.422-1.99-84.458-0.951-84.458-0.951l-0.219-12.447h14.15l0.442-5.461c0,0,2.874-2.066-5.527-2.289
		c-8.402-0.221-30.954,0.623-30.954,0.623s-2.708-1.842-2.266-3.389c-0.115-1.529-1.658-4.986-2.377-4.82
		c-0.719,0.166-1.105,5.303-1.105,5.303s-8.31,0.508-9.581,0.508s-0.314,2.562-0.811,2.561c-0.497-0.002-1.105-0.184-1.437-0.098
		c-0.332,0.088-0.332-2.035-0.332-2.035s-1.493-0.166-1.769-0.057c-0.276,0.111,0.366,1.996-0.442,1.996
		c-0.808,0.156-0.608,0.104-1.105,0.217c-0.497,0.107-0.276-2.102-0.276-2.102s-3.049-0.527-3.431-0.957
		c-0.383-0.426-0.935-17.727-0.935-17.727l-0.221-2.299l-0.443-0.975h-3.537c0,0-0.983-3.008,3.218-3.227
		C82.414,382.946,79,380.825,79,380.825z"/>
	<g>
		<path fill="#333333" d="M618.187,273.535c-19.277,0-41.466-3.63-56.379-10.89v-34.65c4.001-0.66,10.912-0.99,15.276-0.99
			c4.002,0,9.457,0.33,13.821,0.99l2.91,16.5c8.366,2.31,17.096,3.63,26.917,3.63c22.915,0,32.009-7.92,32.009-24.42
			c0-32.67-89.844-23.1-89.844-76.23c0-34.98,32.373-52.8,71.293-52.8c18.187,0,32.736,1.65,46.195,4.95l-0.001,37.95
			c-4.364,0.66-10.548,0.99-14.549,0.99c-4.365,0-10.55-0.33-14.551-0.99l-2.91-15.84c-4.363-0.99-11.274-1.65-20.006-1.65
			c-21.097,0-31.645,8.25-31.645,23.1c0,30.36,89.844,20.46,89.844,79.201C686.571,258.025,653.106,273.535,618.187,273.535z"/>
		<path fill="#333333" d="M799.329,273.535c-56.016,0-85.113-29.04-85.113-86.46c0-66.99,36.374-92.4,82.567-92.4
			c18.915,0,37.83,2.64,50.923,6.93v42.24c-4.363,0.66-10.549,0.99-14.549,0.99c-4.365,0-10.549-0.33-14.55-0.99l-4.001-20.46
			c-4.364-0.99-11.275-1.979-18.914-1.979c-29.463,0-47.286,14.19-47.286,60.391c0,50.82,16.731,64.021,51.65,64.021
			c13.822,0,30.189-3.63,41.466-9.57c2.91,8.25,5.82,18.15,6.912,27.39C836.067,270.235,813.515,273.535,799.329,273.535z"/>
		<path fill="#333333" d="M998.292,127.344c-4.002-0.99-10.186-1.979-16.369-1.979c-13.094,0-26.189,2.31-42.559,16.83v102.3
			l24.734,3.3c0.363,3.3,0.729,7.59,0.729,10.89c0,3.3-0.363,8.25-0.729,11.55h-80.021c-0.363-3.3-0.729-8.25-0.729-11.55
			c0-3.3,0.363-7.59,0.729-10.89l23.643-3.3v-120.45l-24.369-1.98c-0.365-2.31-0.729-7.26-0.729-10.56c0-3.3,0.363-7.92,0.729-10.56
			c18.551-3.3,38.191-4.62,56.379-4.62l-1.818,22.771h3.273c20.732-22.439,34.191-24.42,45.83-24.42
			c4.002,0,10.188,0.33,14.551,1.65C1001.563,106.224,1000.108,117.444,998.292,127.344z"/>
		<path fill="#333333" d="M1164.151,191.364H1052.12v1.32c0,35.97,12.73,53.13,53.105,53.13c17.459,0,37.465-4.95,48.74-11.22
			c3.273,7.92,6.549,18.81,8.002,27.72c-14.549,7.26-39.283,11.22-57.471,11.22c-56.742,0-86.568-28.71-86.568-87.12
			c0-63.69,33.1-91.741,77.477-91.741c46.193,0,69.838,25.74,69.838,69.96C1165.243,171.895,1164.878,183.444,1164.151,191.364z
			 M1052.483,168.264h80.75c0.363-2.64,0.363-7.59,0.363-9.9c0-28.38-14.549-39.93-38.92-39.93
			C1069.579,118.434,1053.575,132.954,1052.483,168.264z"/>
		<path fill="#333333" d="M1339.476,191.364h-112.031v1.32c0,35.97,12.73,53.13,53.105,53.13c17.459,0,37.465-4.95,48.74-11.22
			c3.273,7.92,6.549,18.81,8.002,27.72c-14.549,7.26-39.283,11.22-57.471,11.22c-56.744,0-86.568-28.71-86.568-87.12
			c0-63.69,33.1-91.741,77.477-91.741c46.193,0,69.838,25.74,69.838,69.96C1340.567,171.895,1340.202,183.444,1339.476,191.364z
			 M1227.808,168.264h80.75c0.363-2.64,0.363-7.59,0.363-9.9c0-28.38-14.551-39.93-38.92-39.93
			C1244.903,118.434,1228.899,132.954,1227.808,168.264z"/>
		<path fill="#333333" d="M1565.358,270.235h-74.203c-0.363-3.3-0.727-8.25-0.727-11.55c0-3.3,0.363-7.59,0.727-10.89l18.914-3.3
			v-95.7c0-16.831-9.094-27.061-32.734-27.061c-18.188,0-33.465,4.62-48.016,13.53v109.23l21.098,3.3
			c0.363,3.3,0.729,7.59,0.729,10.89c0,3.3-0.363,8.25-0.729,11.55h-76.385c-0.363-3.3-0.729-8.25-0.729-11.55
			c0-3.3,0.363-7.59,0.729-10.89l23.643-3.3v-120.45l-24.369-1.98c-0.365-2.31-0.729-6.93-0.729-10.23s0.363-8.25,0.729-10.89
			c18.551-3.3,37.828-4.62,56.016-4.62l-1.455,17.82h3.273c18.914-14.85,37.102-19.47,56.744-19.47
			c28.734,0,53.832,12.54,53.832,52.47v97.351l23.643,3.3c0.365,3.3,0.729,7.59,0.729,10.89
			C1566.085,261.985,1565.722,266.935,1565.358,270.235z"/>
		<path fill="#333333" d="M638.557,503.536c-39.284,0-54.197-16.17-54.197-53.461v-96.359h-23.644v-25.74h23.644v-36.96
			c8.729-2.31,22.188-4.62,31.646-5.28v42.24h48.013c0,8.25-1.091,17.16-2.546,25.74h-45.467v96.359
			c0,20.461,6.909,25.74,25.461,25.74c8.729,0,20.37-2.311,27.645-5.279c2.184,7.59,4.001,17.49,4.729,26.07
			C664.018,500.895,648.742,503.536,638.557,503.536z"/>
		<path fill="#333333" d="M880.808,500.235h-54.562l0.729-14.85h-3.273c-17.822,12.539-36.01,18.148-56.38,18.148
			c-28.734,0-53.47-12.539-53.47-52.141v-97.35l-20.732-1.98c-0.363-2.311-0.728-7.26-0.728-10.561s0.363-7.92,0.728-10.561
			c18.552-3.301,39.283-4.619,53.833-4.619l-1.455,28.051v94.379c0,17.16,9.457,27.721,33.465,27.721
			c17.822,0,33.101-4.619,46.559-11.881V353.713l-28.008-3.301c-0.363-3.301-0.729-7.59-0.729-10.891s0.364-8.25,0.729-11.551
			h61.108l-1.455,26.4v120.121l23.645,3.299c0.363,3.301,0.727,7.592,0.727,10.891C881.536,491.983,881.171,496.934,880.808,500.235
			z"/>
		<path fill="#333333" d="M1022.667,357.344c-4-0.99-10.186-1.98-16.367-1.98c-13.096,0-26.189,2.311-42.559,16.83v102.301
			l24.734,3.301c0.363,3.301,0.727,7.59,0.727,10.891s-0.363,8.25-0.727,11.551h-80.021c-0.363-3.301-0.729-8.25-0.729-11.551
			s0.363-7.59,0.729-10.891l23.643-3.301V354.045l-24.369-1.98c-0.365-2.311-0.729-7.26-0.729-10.561s0.363-7.92,0.729-10.561
			c18.551-3.301,38.191-4.619,56.379-4.619l-1.818,22.77h3.273c20.732-22.439,34.191-24.42,45.83-24.42
			c4.002,0,10.188,0.33,14.551,1.65C1025.94,336.223,1024.485,347.444,1022.667,357.344z"/>
		<path fill="#333333" d="M1239.087,500.235h-74.201c-0.365-3.301-0.729-8.25-0.729-11.551c0-3.299,0.363-7.59,0.729-10.891
			l18.914-3.299v-95.701c0-16.83-9.096-27.061-32.736-27.061c-18.188,0-33.465,4.619-48.014,13.529v109.23l21.096,3.301
			c0.365,3.301,0.729,7.59,0.729,10.891s-0.363,8.25-0.729,11.551h-76.385c-0.363-3.301-0.729-8.25-0.729-11.551
			s0.363-7.59,0.729-10.891l23.643-3.301V354.043l-24.369-1.98c-0.363-2.311-0.729-6.93-0.729-10.229
			c0-3.301,0.363-8.25,0.729-10.891c18.551-3.301,37.828-4.621,56.016-4.621l-1.455,17.82h3.273
			c18.914-14.852,37.102-19.471,56.744-19.471c28.734,0,53.832,12.539,53.832,52.471v97.352l23.645,3.299
			c0.363,3.301,0.727,7.592,0.727,10.891C1239.815,491.985,1239.452,496.934,1239.087,500.235z"/>
		<path fill="#333333" d="M1406.772,421.366h-112.031v1.318c0,35.971,12.73,53.131,53.105,53.131
			c17.459,0,37.465-4.949,48.74-11.221c3.273,7.92,6.549,18.811,8.002,27.721c-14.549,7.26-39.283,11.221-57.471,11.221
			c-56.744,0-86.568-28.711-86.568-87.121c0-63.689,33.1-91.74,77.477-91.74c46.193,0,69.838,25.74,69.838,69.961
			C1407.864,401.893,1407.501,413.446,1406.772,421.366z M1295.104,398.264h80.75c0.363-2.641,0.363-7.59,0.363-9.9
			c0-28.379-14.549-39.93-38.92-39.93C1312.2,348.434,1296.196,362.954,1295.104,398.264z"/>
		<path fill="#333333" d="M1555.542,357.344c-4-0.99-10.186-1.98-16.367-1.98c-13.096,0-26.189,2.311-42.559,16.83v102.301
			l24.734,3.301c0.363,3.301,0.727,7.59,0.727,10.891s-0.363,8.25-0.727,11.551h-80.023c-0.363-3.301-0.727-8.25-0.727-11.551
			s0.363-7.59,0.727-10.891l23.645-3.301V354.045l-24.371-1.98c-0.363-2.311-0.729-7.26-0.729-10.561s0.363-7.92,0.729-10.561
			c18.551-3.301,38.193-4.619,56.381-4.619l-1.82,22.77h3.273c20.734-22.439,34.191-24.42,45.832-24.42
			c4.002,0,10.186,0.33,14.549,1.65C1558.815,336.223,1557.36,347.444,1555.542,357.344z"/>
	</g>
	<g display="none">
		<path display="inline" fill="#333333" d="M560.831,532.489c-14.787,0-25.449-7.697-25.449-28.186
			c0-18.93,11.119-28.186,25.794-28.186c14.789,0,25.45,7.697,25.45,28.186C586.625,523.233,575.504,532.489,560.831,532.489z
			 M561.174,484.438c-9.285,0-15.019,4.576-15.019,19.865c0,14.977,5.273,19.865,14.674,19.865c9.286,0,15.019-4.576,15.019-19.865
			C575.848,489.327,570.575,484.438,561.174,484.438z"/>
		<path display="inline" fill="#333333" d="M657.468,531.448h-23.388c-0.113-1.039-0.229-2.6-0.229-3.641
			c0-1.039,0.115-2.391,0.229-3.432l5.961-1.039v-30.162c0-5.305-2.864-8.527-10.316-8.527c-5.731,0-10.547,1.455-15.132,4.264
			v34.426l6.647,1.039c0.115,1.041,0.229,2.395,0.229,3.434s-0.114,2.602-0.229,3.641h-24.074c-0.113-1.039-0.229-2.602-0.229-3.641
			c0-1.041,0.114-2.393,0.229-3.434l7.452-1.039v-37.961l-7.681-0.625c-0.115-0.729-0.229-2.184-0.229-3.225
			c0-1.039,0.113-2.6,0.229-3.432c5.846-1.041,11.922-1.457,17.654-1.457l-0.459,5.617h1.031c5.961-4.68,11.693-6.137,17.885-6.137
			c9.056,0,16.966,3.953,16.966,16.537v30.682l7.452,1.039c0.113,1.041,0.229,2.393,0.229,3.432
			C657.696,528.848,657.583,530.409,657.468,531.448z"/>
		<path display="inline" fill="#333333" d="M689.677,531.448H664.8c-0.114-1.039-0.229-2.6-0.229-3.641
			c0-1.039,0.114-2.391,0.229-3.432l7.452-1.039v-60.531l-7.682-0.623c-0.115-0.729-0.229-2.289-0.229-3.328
			c0-1.041,0.113-2.496,0.229-3.328c5.848-1.041,12.381-1.457,18.112-1.457l-0.458,8.842v60.426l7.451,1.039
			c0.114,1.041,0.229,2.393,0.229,3.434C689.905,528.848,689.792,530.409,689.677,531.448z"/>
		<path display="inline" fill="#333333" d="M723.265,531.448h-24.877c-0.114-1.039-0.229-2.6-0.229-3.641
			c0-1.039,0.114-2.391,0.229-3.432l7.452-1.039v-37.963l-7.682-0.623c-0.114-0.729-0.229-2.289-0.229-3.328
			c0-1.041,0.114-2.496,0.229-3.328c5.847-1.041,12.381-1.457,18.112-1.457l-0.458,8.842v37.857l7.451,1.039
			c0.115,1.041,0.229,2.393,0.229,3.432C723.493,528.848,723.38,530.409,723.265,531.448z M710.083,468.11
			c-4.128,0-6.19-2.809-6.19-5.928c0-3.225,2.062-6.137,6.306-6.137c4.127,0,6.19,2.912,6.19,6.137
			C716.387,465.407,714.324,468.11,710.083,468.11z"/>
		<path display="inline" fill="#333333" d="M792.275,531.448h-23.387c-0.114-1.039-0.229-2.6-0.229-3.641
			c0-1.039,0.115-2.391,0.229-3.432l5.961-1.039v-30.162c0-5.305-2.865-8.527-10.317-8.527c-5.73,0-10.547,1.455-15.132,4.264
			v34.426l6.648,1.039c0.114,1.041,0.229,2.395,0.229,3.434s-0.114,2.602-0.229,3.641h-24.074c-0.114-1.039-0.229-2.602-0.229-3.641
			c0-1.041,0.114-2.393,0.229-3.434l7.452-1.039v-37.961l-7.682-0.625c-0.114-0.729-0.229-2.184-0.229-3.225
			c0-1.039,0.114-2.6,0.229-3.432c5.847-1.041,11.922-1.457,17.654-1.457l-0.459,5.617h1.032c5.961-4.68,11.692-6.137,17.884-6.137
			c9.056,0,16.966,3.953,16.966,16.537v30.682l7.452,1.039c0.114,1.041,0.229,2.393,0.229,3.432
			C792.503,528.848,792.389,530.409,792.275,531.448z"/>
		<path display="inline" fill="#333333" d="M845.12,506.59h-35.309v0.416c0,11.338,4.013,16.746,16.737,16.746
			c5.503,0,11.808-1.561,15.361-3.537c1.031,2.496,2.064,5.93,2.521,8.736c-4.584,2.289-12.381,3.537-18.113,3.537
			c-17.883,0-27.284-9.049-27.284-27.457c0-20.074,10.434-28.914,24.419-28.914c14.56,0,22.011,8.113,22.011,22.049
			C845.464,500.456,845.349,504.094,845.12,506.59z M809.926,499.311h25.45c0.113-0.832,0.113-2.393,0.113-3.119
			c0-8.945-4.586-12.586-12.266-12.586C815.314,483.606,810.27,488.182,809.926,499.311z"/>
		<path display="inline" fill="#333333" d="M896.589,532.489c-6.076,0-13.068-1.145-17.77-3.434v-10.92
			c1.262-0.207,3.439-0.312,4.814-0.312c1.262,0,2.98,0.104,4.355,0.312l0.918,5.201c2.637,0.729,5.389,1.145,8.482,1.145
			c7.223,0,10.088-2.496,10.088-7.697c0-10.297-28.316-7.279-28.316-24.025c0-11.021,10.203-16.641,22.471-16.641
			c5.732,0,10.316,0.521,14.561,1.561v11.961c-1.377,0.207-3.326,0.312-4.586,0.312c-1.377,0-3.324-0.104-4.586-0.312l-0.918-4.99
			c-1.375-0.312-3.553-0.521-6.305-0.521c-6.648,0-9.975,2.602-9.975,7.279c0,9.568,28.316,6.449,28.316,24.961
			C918.142,527.6,907.595,532.489,896.589,532.489z"/>
		<path display="inline" fill="#333333" d="M951.269,532.489c-12.381,0-17.082-5.098-17.082-16.85V485.27h-7.451v-8.111h7.451
			V465.51c2.752-0.729,6.994-1.457,9.975-1.664v13.312h15.133c0,2.6-0.344,5.408-0.803,8.109h-14.33v30.369
			c0,6.449,2.18,8.113,8.025,8.113c2.75,0,6.42-0.729,8.711-1.664c0.689,2.393,1.262,5.512,1.492,8.217
			C959.294,531.657,954.479,532.489,951.269,532.489z"/>
		<path display="inline" fill="#333333" d="M993.454,532.489c-14.787,0-25.449-7.697-25.449-28.186
			c0-18.93,11.119-28.186,25.793-28.186c14.789,0,25.449,7.697,25.449,28.186C1019.249,523.233,1008.128,532.489,993.454,532.489z
			 M993.798,484.438c-9.285,0-15.02,4.576-15.02,19.865c0,14.977,5.273,19.865,14.674,19.865c9.287,0,15.02-4.576,15.02-19.865
			C1008.472,489.327,1003.198,484.438,993.798,484.438z"/>
		<path display="inline" fill="#333333" d="M1065.788,486.415c-1.262-0.312-3.211-0.623-5.158-0.623
			c-4.127,0-8.256,0.727-13.412,5.303v32.242l7.795,1.039c0.115,1.041,0.229,2.393,0.229,3.434c0,1.039-0.113,2.602-0.229,3.641
			h-25.221c-0.115-1.039-0.23-2.602-0.23-3.641c0-1.041,0.115-2.393,0.23-3.434l7.451-1.039v-37.961l-7.682-0.625
			c-0.115-0.729-0.229-2.287-0.229-3.328c0-1.039,0.113-2.496,0.229-3.328c5.846-1.039,12.037-1.455,17.77-1.455l-0.572,7.178h1.031
			c6.533-7.072,10.775-7.697,14.443-7.697c1.262,0,3.211,0.104,4.586,0.52C1066.819,479.758,1066.36,483.293,1065.788,486.415z"/>
		<path display="inline" fill="#333333" d="M1127.001,484.231l-6.076,1.039c0,0-10.201,29.434-16.508,44.514
			c-7.451,17.889-14.33,24.129-24.762,24.129c-2.867,0-7.107-0.312-10.547-1.975c0.344-3.018,1.146-6.346,2.062-8.633
			c2.406,0.936,5.617,1.561,8.482,1.561c5.045,0,8.025-1.977,10.434-6.865l3.096-6.553c-7.107-14.977-13.07-29.328-18.344-46.072
			l-6.648-0.625c-0.115-0.729-0.229-2.287-0.229-3.328c0-1.039,0.113-2.496,0.229-3.328c4.355-0.936,11.693-1.455,14.445-1.455
			l13.641,38.584c0.689,1.873,1.377,4.266,1.836,6.449h0.572c0.344-2.184,0.803-4.576,1.49-6.553l10.775-29.85l-6.42-1.039
			c-0.115-1.041-0.229-2.393-0.229-3.434c0-1.039,0.113-2.6,0.229-3.639h22.469c0.115,1.039,0.23,2.6,0.23,3.639
			C1127.229,481.838,1127.116,483.19,1127.001,484.231z"/>
		<path display="inline" fill="#333333" d="M1156.116,532.489c-12.383,0-17.082-5.098-17.082-16.85V485.27h-7.451v-8.111h7.451
			V465.51c2.752-0.729,6.992-1.457,9.975-1.664v13.312h15.133c0,2.6-0.344,5.408-0.803,8.109h-14.33v30.369
			c0,6.449,2.178,8.113,8.023,8.113c2.752,0,6.422-0.729,8.715-1.664c0.688,2.393,1.26,5.512,1.488,8.217
			C1164.14,531.657,1159.325,532.489,1156.116,532.489z"/>
		<path display="inline" fill="#333333" d="M1218.937,506.59h-35.311v0.416c0,11.338,4.014,16.746,16.736,16.746
			c5.504,0,11.809-1.561,15.363-3.537c1.031,2.496,2.062,5.93,2.521,8.736c-4.586,2.289-12.383,3.537-18.113,3.537
			c-17.883,0-27.285-9.049-27.285-27.457c0-20.074,10.434-28.914,24.42-28.914c14.559,0,22.01,8.113,22.01,22.049
			C1219.28,500.456,1219.165,504.094,1218.937,506.59z M1183.741,499.311h25.449c0.115-0.832,0.115-2.393,0.115-3.119
			c0-8.945-4.586-12.586-12.268-12.586C1189.13,483.606,1184.085,488.182,1183.741,499.311z"/>
		<path display="inline" fill="#333333" d="M1253.554,531.448h-24.877c-0.113-1.039-0.229-2.6-0.229-3.641
			c0-1.039,0.113-2.391,0.229-3.432l7.453-1.039v-60.531l-7.682-0.623c-0.115-0.729-0.229-2.289-0.229-3.328
			c0-1.041,0.113-2.496,0.229-3.328c5.848-1.041,12.381-1.457,18.111-1.457l-0.457,8.842v60.426l7.451,1.039
			c0.115,1.041,0.229,2.393,0.229,3.434C1253.782,528.848,1253.669,530.409,1253.554,531.448z"/>
		<path display="inline" fill="#333333" d="M1285.995,531.448h-24.877c-0.113-1.039-0.229-2.6-0.229-3.641
			c0-1.039,0.113-2.391,0.229-3.432l7.451-1.039v-60.531l-7.68-0.623c-0.115-0.729-0.23-2.289-0.23-3.328
			c0-1.041,0.115-2.496,0.23-3.328c5.846-1.041,12.381-1.457,18.111-1.457l-0.457,8.842v60.426l7.449,1.039
			c0.115,1.041,0.23,2.393,0.23,3.434C1286.224,528.848,1286.11,530.409,1285.995,531.448z"/>
		<path display="inline" fill="#333333" d="M1319.583,531.448h-24.877c-0.115-1.039-0.23-2.6-0.23-3.641
			c0-1.039,0.115-2.391,0.23-3.432l7.451-1.039v-37.963l-7.682-0.623c-0.115-0.729-0.229-2.289-0.229-3.328
			c0-1.041,0.113-2.496,0.229-3.328c5.846-1.041,12.381-1.457,18.113-1.457l-0.459,8.842v37.857l7.451,1.039
			c0.115,1.041,0.229,2.393,0.229,3.432C1319.81,528.848,1319.696,530.409,1319.583,531.448z M1306.397,468.11
			c-4.127,0-6.189-2.809-6.189-5.928c0-3.225,2.062-6.137,6.307-6.137c4.127,0,6.189,2.912,6.189,6.137
			S1310.64,468.11,1306.397,468.11z"/>
		<path display="inline" fill="#333333" d="M1388.593,531.448h-23.387c-0.115-1.039-0.23-2.6-0.23-3.641
			c0-1.039,0.115-2.391,0.23-3.432l5.961-1.039v-30.162c0-5.305-2.865-8.527-10.318-8.527c-5.73,0-10.547,1.455-15.131,4.264v34.426
			l6.646,1.039c0.115,1.041,0.23,2.395,0.23,3.434s-0.115,2.602-0.23,3.641h-24.072c-0.115-1.039-0.23-2.602-0.23-3.641
			c0-1.041,0.115-2.393,0.23-3.434l7.451-1.039v-37.961l-7.682-0.625c-0.115-0.729-0.229-2.184-0.229-3.225
			c0-1.039,0.113-2.6,0.229-3.432c5.846-1.041,11.922-1.457,17.654-1.457l-0.459,5.617h1.033c5.961-4.68,11.691-6.137,17.883-6.137
			c9.057,0,16.967,3.953,16.967,16.537v30.682l7.451,1.039c0.115,1.041,0.229,2.393,0.229,3.432
			C1388.819,528.848,1388.708,530.409,1388.593,531.448z"/>
		<path display="inline" fill="#333333" d="M1419.771,553.913c-17.885,0-24.074-5.408-24.074-14.145
			c0-3.744,2.406-8.008,6.42-11.129c-1.49-2.184-2.98-4.99-3.783-7.592c0.918-3.225,3.783-7.904,6.535-11.648
			c-4.357-2.703-7.107-7.488-7.107-14.561c0-10.713,7.91-18.721,21.094-18.721c3.094,0,6.648,0.52,9.4,1.041h17.311
			c0,2.184-0.229,4.992-0.803,7.176l-8.025,0.416v0.416c2.18,2.287,3.555,6.031,3.555,9.568c0,11.855-8.826,18.721-20.406,18.721
			c-2.75,0-6.42-0.416-8.482-1.041c-2.178,2.809-3.324,5.514-3.324,7.072c0,2.186,1.262,2.602,3.555,2.602h17.883
			c9.975,0,16.508,3.223,16.508,13.52C1446.022,546.84,1437.31,553.913,1419.771,553.913z M1429.056,530.719h-20.98
			c-1.604,1.664-2.521,4.266-2.521,6.762c0,6.137,3.898,8.424,14.674,8.424c9.975,0,15.938-2.08,15.938-9.465
			C1436.165,531.448,1434.101,530.719,1429.056,530.719z M1418.968,483.502c-7.566,0-11.234,3.848-11.234,11.336
			c0,7.697,3.668,11.232,11.234,11.232c7.564,0,11.35-3.744,11.35-11.439C1430.317,486.624,1426.534,483.502,1418.968,483.502z"/>
	</g>
</g>
</svg>
