<?xml version="1.0" encoding="utf-8"?>
<!-- Generator: Adobe Illustrator 16.0.0, SVG Export Plug-In . SVG Version: 6.00 Build 0)  -->
<!DOCTYPE svg PUBLIC "-//W3C//DTD SVG 1.1//EN" "http://www.w3.org/Graphics/SVG/1.1/DTD/svg11.dtd">
<svg version="1.1" id="Layer_1" xmlns="http://www.w3.org/2000/svg" xmlns:xlink="http://www.w3.org/1999/xlink" x="0px" y="0px"
	 width="390px" height="373px" viewBox="0 0 390 373" enable-background="new 0 0 390 373" xml:space="preserve">
<g>
	<title>Layer 1</title>
	<g id="Layer_x0020_1">
		<path id="path10" fill="#FFFFFF" d="M67.165,130.006h31.777l4.885,171.014l-40.938,0.002L67.165,130.006L67.165,130.006z
			 M37.216,307.168h315.327v22.003h18.894l-0.001,22.004h18.323v22.001L0,373.174v-21.999h18.323v-22.004h18.892L37.216,307.168
			L37.216,307.168z M368.988,82.256L194.876,0L20.761,82.256l0.001,13.448l348.227,0.001V82.256L368.988,82.256z M54.328,101.857
			h281.105v22H54.328V101.857z M290.205,130.006h31.777l4.886,171.016l-40.937-0.002L290.205,130.006z M215.858,130.006
			l31.776,0.001l4.887,171.013l-40.939,0.002L215.858,130.006L215.858,130.006z M141.511,130.006l31.776-0.002l4.889,171.016h-40.94
			L141.511,130.006z"/>
	</g>
</g>
</svg>
